<svg xmlns="http://www.w3.org/2000/svg" width="24" height="24" viewBox="0 0 24 24">
    <path fill="#FFF" fill-rule="evenodd" d="M19.682 10.136a1.052 1.052 0 0 0-.773-.318h-4.727V5.091c0-.303-.107-.56-.319-.773A1.052 1.052 0 0 0 13.09 4H10.91c-.303 0-.56.106-.773.318-.212.212-.318.47-.318.773v4.727H5.091c-.303 0-.56.106-.773.318-.212.212-.318.47-.318.773v2.182c0 .303.106.56.318.772.212.213.47.319.773.319h4.727v4.727c0 .303.106.56.318.773.212.212.47.318.773.318h2.182c.303 0 .56-.106.772-.318.213-.212.319-.47.319-.773v-4.727h4.727c.303 0 .56-.106.773-.319.212-.211.318-.469.318-.772v-2.182c0-.303-.106-.56-.318-.773z"/>
</svg>
